<?xml version="1.0" encoding="UTF-8" standalone="no"?>
<svg
   version="1.0"
   width="304.000000pt"
   height="392.000000pt"
   viewBox="0 0 304.000000 392.000000"
   preserveAspectRatio="xMidYMid meet"
   id="svg2"
   sodipodi:docname="Spirit_of_Ecstasy.svg"
   inkscape:version="1.4 (86a8ad7, 2024-10-11)"
   xmlns:inkscape="http://www.inkscape.org/namespaces/inkscape"
   xmlns:sodipodi="http://sodipodi.sourceforge.net/DTD/sodipodi-0.dtd"
   xmlns="http://www.w3.org/2000/svg"
   xmlns:svg="http://www.w3.org/2000/svg">
  <defs
     id="defs2" />
  <sodipodi:namedview
     id="namedview2"
     pagecolor="#ffffff"
     bordercolor="#000000"
     borderopacity="0.25"
     inkscape:showpageshadow="2"
     inkscape:pageopacity="0.0"
     inkscape:pagecheckerboard="0"
     inkscape:deskcolor="#d1d1d1"
     inkscape:document-units="pt"
     inkscape:zoom="0.55874063"
     inkscape:cx="83.222873"
     inkscape:cy="162.86627"
     inkscape:window-width="1920"
     inkscape:window-height="1028"
     inkscape:window-x="-8"
     inkscape:window-y="-8"
     inkscape:window-maximized="1"
     inkscape:current-layer="svg2" />
  <g
     transform="translate(0.000000,392.000000) scale(0.100000,-0.100000)"
     fill="#000000"
     stroke="none"
     id="g2">
    <path
       d="M25 3890 c-27 -30 -13 -70 76 -220 44 -74 150 -276 235 -449 166 -337 227 -440 320 -540 120 -130 290 -231 449 -268 85 -19 372 -26 465 -11 l45 8 -60 -29 c-69 -32 -136 -100 -168 -169 -17 -36 -22 -66 -22 -132 0 -106 19 -149 139 -324 189 -274 207 -348 136 -561 -46 -137 -66 -237 -56 -289 5 -26 21 -47 61 -82 46 -40 57 -57 80 -123 35 -98 86 -174 147 -219 58 -43 49 -52 -22 -21 -55 24 -55 24 -64 -7 -5 -18 10 -38 81 -111 48 -50 99 -96 111 -102 13 -7 21 -15 19 -18 -13 -13 -70 12 -112 49 -44 39 -48 40 -98 35 -80 -8 -281 -55 -392 -92 -107 -35 -200 -73 -194 -79 2 -2 47 3 99 10 455 64 1074 20 1499 -106 55 -17 103 -30 106 -30 3 0 -2 14 -11 32 -23 45 -101 125 -159 164 -39 27 -45 34 -27 34 12 0 22 3 22 6 0 3 -17 27 -38 53 -56 68 -150 230 -182 313 -58 148 -117 439 -139 679 -13 140 -22 165 -107 322 -84 154 -111 195 -229 341 -52 66 -97 129 -100 140 -20 101 -11 151 35 189 21 18 54 29 122 41 51 10 107 21 124 27 23 7 38 6 60 -6 16 -8 48 -15 71 -15 50 0 71 22 135 141 76 143 116 172 255 186 45 4 72 1 102 -11 23 -9 54 -16 70 -16 25 0 32 8 57 57 16 31 37 58 47 61 15 4 17 10 12 31 -4 14 -7 44 -6 66 7 135 -2 195 -33 223 -11 11 -49 35 -83 52 -133 70 -272 22 -309 -106 -20 -71 -34 -81 -90 -66 -59 16 -96 15 -120 -3 -19 -14 -19 -14 1 -9 11 3 47 -4 79 -16 33 -11 69 -20 81 -20 33 0 71 34 102 91 34 63 80 89 158 89 32 0 70 -7 88 -16 57 -29 60 -34 26 -58 -18 -12 -37 -37 -45 -60 -14 -42 -25 -52 -64 -63 -31 -8 -41 -22 -34 -49 4 -17 -2 -24 -28 -35 -35 -15 -146 -19 -189 -7 -24 7 -28 4 -34 -20 l-7 -27 -13 38 c-27 79 -73 106 -242 142 -351 76 -674 175 -889 271 -172 78 -323 166 -629 367 -272 179 -447 276 -581 321 -95 31 -115 32 -139 6z m1766 -1015 c81 -29 195 -67 254 -84 58 -17 119 -40 135 -51 34 -24 46 -55 30 -75 -27 -32 -170 -49 -170 -21 0 24 -54 58 -235 149 -93 47 -186 100 -205 117 l-35 31 39 -6 c22 -4 106 -31 187 -60z m233 -1226 c72 -91 137 -223 144 -288 3 -38 -4 -74 -33 -162 -71 -218 -79 -267 -80 -451 l0 -167 -23 66 c-56 166 -51 360 15 587 39 135 29 187 -82 469 -13 32 4 17 59 -54z m71 -1260 c22 -6 88 -33 146 -60 81 -38 129 -53 210 -66 l104 -17 -55 -9 c-30 -5 -102 -7 -160 -4 -129 5 -188 29 -270 112 -59 59 -55 66 25 44z"
       id="path1"
       style="fill:#ffffff;fill-opacity:1" />
    <path
       d="M1013 3685 c-57 -16 -116 -44 -148 -70 -20 -16 -20 -16 5 -11 146 34 278 31 399 -10 100 -33 186 -85 296 -179 182 -154 302 -247 382 -296 86 -52 252 -133 259 -126 3 2 -20 20 -49 39 -86 58 -217 166 -375 310 -247 227 -329 287 -448 328 -87 29 -243 37 -321 15z"
       id="path2"
       style="fill:#ffffff;fill-opacity:1" />
  </g>
</svg>
